<svg width="120" height="120" viewBox="0 0 120 120" fill="none" xmlns="http://www.w3.org/2000/svg">
  <rect x="10" y="10" width="100" height="100" rx="26" fill="#F0EDE4" stroke="#2E6C52" stroke-width="4" />
  <path d="M42 78C42 66 56 58 60 58C64 58 78 66 78 78" stroke="#4B8A6E" stroke-width="6" stroke-linecap="round" />
  <path d="M48 72C48 62 52 52 60 46C68 52 72 62 72 72" stroke="#7FB069" stroke-width="6" stroke-linecap="round" />
  <path d="M36 78C36 70 44 64 48 64" stroke="#D7C97A" stroke-width="5" stroke-linecap="round" />
  <path d="M84 78C84 72 76 66 72 66" stroke="#FFB79D" stroke-width="5" stroke-linecap="round" />
  <circle cx="60" cy="50" r="6" fill="#4B8A6E" />
  <circle cx="45" cy="64" r="5" fill="#D7C97A" />
  <circle cx="75" cy="66" r="5" fill="#FFB79D" />
</svg>
