<svg width="160" height="160" viewBox="0 0 160 160" fill="none" xmlns="http://www.w3.org/2000/svg">
  <defs>
    <linearGradient id="sky" x1="20" y1="20" x2="140" y2="140" gradientUnits="userSpaceOnUse">
      <stop offset="0" stop-color="#6ad1d1" />
      <stop offset="1" stop-color="#ffd17a" />
    </linearGradient>
  </defs>
  <rect x="12" y="12" width="136" height="136" rx="32" fill="url(#sky)" />
  <g stroke="#0f3d4a" stroke-width="6" stroke-linecap="round" stroke-linejoin="round">
    <path d="M48 62l32 26 32-26" fill="rgba(255,255,255,0.85)" />
    <path d="M40 58h80v44H40z" fill="rgba(255,255,255,0.9)" />
    <path d="M32 88c-10 0-18-8-18-18 0-7 4-13 10-16" />
    <path d="M128 88c10 0 18-8 18-18 0-7-4-13-10-16" />
    <path d="M30 112c12 10 32 16 50 16s38-6 50-16" stroke-linecap="round" />
  </g>
</svg>
