<svg width="160" height="160" viewBox="0 0 160 160" xmlns="http://www.w3.org/2000/svg">
  <defs>
    <radialGradient id="glow" cx="50%" cy="45%" r="70%">
      <stop offset="0%" stop-color="#fef3ff" />
      <stop offset="45%" stop-color="#c084fc" />
      <stop offset="100%" stop-color="#6d28d9" />
    </radialGradient>
    <linearGradient id="liquid" x1="0%" x2="100%" y1="0%" y2="100%">
      <stop offset="0%" stop-color="#34d399" />
      <stop offset="50%" stop-color="#38bdf8" />
      <stop offset="100%" stop-color="#a855f7" />
    </linearGradient>
  </defs>
  <rect x="8" y="8" width="144" height="144" rx="28" fill="#0f172a" />
  <g transform="translate(32 28)">
    <path d="M32 0h40c2.2 0 4 1.8 4 4v8c0 2.2-1.8 4-4 4H32c-2.2 0-4-1.8-4-4V4c0-2.2 1.8-4 4-4z" fill="#c4b5fd"/>
    <path d="M24 20h56l12 60c2.4 12-5.6 24-17.8 26.7a22 22 0 0 1-8.2.3l-28-4.2c-11.8-1.8-20.8-12.3-20.8-24.3 0-1.4.1-2.8.4-4.2L24 20z" fill="url(#glow)" stroke="#a855f7" stroke-width="4" stroke-linejoin="round"/>
    <path d="M33 56h38c6.6 0 12 5.4 12 12 0 10.4-8.3 19.2-18.6 19.9l-24.8 1.6C30.2 90.1 22 81.8 22 71c0-6.6 5.4-12 12-12z" fill="url(#liquid)" opacity="0.95"/>
    <circle cx="52" cy="46" r="10" fill="#fbbf24" opacity="0.5"/>
    <circle cx="72" cy="72" r="6" fill="#f472b6" opacity="0.75"/>
    <circle cx="36" cy="68" r="5" fill="#22d3ee" opacity="0.8"/>
  </g>
  <path d="M92 56l28-12 12 20" stroke="#facc15" stroke-width="6" stroke-linecap="round" stroke-linejoin="round"/>
  <circle cx="120" cy="60" r="8" fill="#fde68a"/>
</svg>
