<svg width="128" height="128" viewBox="0 0 128 128" xmlns="http://www.w3.org/2000/svg" role="img" aria-labelledby="title desc">
  <title id="title">Twilight Parade Choreography Icon</title>
  <desc id="desc">Lantern procession under a twilight gradient sky.</desc>
  <defs>
    <linearGradient id="sky" x1="0%" y1="0%" x2="100%" y2="100%">
      <stop offset="0%" stop-color="#0b2444" />
      <stop offset="50%" stop-color="#0f355a" />
      <stop offset="100%" stop-color="#f7b733" />
    </linearGradient>
    <linearGradient id="lantern" x1="0%" y1="0%" x2="0%" y2="100%">
      <stop offset="0%" stop-color="#ffe4a3" />
      <stop offset="100%" stop-color="#f0971c" />
    </linearGradient>
  </defs>
  <rect x="4" y="4" width="120" height="120" rx="28" fill="url(#sky)" />
  <g fill="none" stroke="#fdf5d7" stroke-width="4" stroke-linecap="round" opacity="0.6">
    <path d="M26 86c14-22 34-34 56-32" />
    <path d="M30 102c18-18 40-26 62-18" opacity="0.5" />
  </g>
  <g transform="translate(0,4)">
    <g transform="translate(32,36)">
      <rect x="-12" y="-18" width="24" height="34" rx="10" fill="url(#lantern)" />
      <path d="M0 16v12" stroke="#ffe9bf" stroke-width="3" stroke-linecap="round" />
    </g>
    <g transform="translate(72,50)">
      <rect x="-10" y="-15" width="20" height="28" rx="9" fill="url(#lantern)" />
      <path d="M0 13v12" stroke="#ffe9bf" stroke-width="3" stroke-linecap="round" />
    </g>
    <g transform="translate(94,32)">
      <rect x="-8" y="-12" width="16" height="24" rx="8" fill="url(#lantern)" />
      <path d="M0 10v12" stroke="#ffe9bf" stroke-width="3" stroke-linecap="round" />
    </g>
  </g>
  <circle cx="46" cy="28" r="6" fill="#fbe8c3" opacity="0.75" />
  <circle cx="84" cy="22" r="5" fill="#fbe8c3" opacity="0.6" />
</svg>
