<svg width="128" height="128" viewBox="0 0 128 128" xmlns="http://www.w3.org/2000/svg" role="img" aria-label="Vector Bloom Forge icon">
  <defs>
    <linearGradient id="bg" x1="0%" y1="0%" x2="100%" y2="100%">
      <stop offset="0%" stop-color="#052b3c" />
      <stop offset="100%" stop-color="#0f6d5a" />
    </linearGradient>
    <radialGradient id="core" cx="0.5" cy="0.5" r="0.55">
      <stop offset="0%" stop-color="#ffe7b0" />
      <stop offset="60%" stop-color="#f6b960" />
      <stop offset="100%" stop-color="#cf7a2b" />
    </radialGradient>
  </defs>
  <rect x="8" y="8" width="112" height="112" rx="24" fill="url(#bg)" />
  <g fill="none" stroke-linejoin="round" stroke-width="4">
    <path d="M64 20 C78 32 90 46 98 64 C90 82 78 96 64 108 C50 96 38 82 30 64 C38 46 50 32 64 20 Z" fill="url(#core)" stroke="rgba(255, 255, 255, 0.2)" />
    <path d="M64 28 C74 38 82 50 88 64 C82 78 74 90 64 100 C54 90 46 78 40 64 C46 50 54 38 64 28 Z" stroke="#35d3ab" fill="none" />
    <path d="M64 36 C70 42 76 52 80 64 C76 76 70 86 64 92 C58 86 52 76 48 64 C52 52 58 42 64 36 Z" stroke="#f4b04f" fill="none" />
  </g>
  <circle cx="64" cy="64" r="10" fill="#041a25" />
  <circle cx="64" cy="64" r="6" fill="#ffe7b0" />
</svg>
