<svg width="160" height="160" viewBox="0 0 160 160" xmlns="http://www.w3.org/2000/svg" role="img" aria-labelledby="title desc">
  <title id="title">Interstellar Herbarium Glyph</title>
  <desc id="desc">A luminous sprig enclosed in a cosmic ring.</desc>
  <defs>
    <radialGradient id="glow" cx="50%" cy="45%" r="60%">
      <stop offset="0%" stop-color="#c7ffe5" stop-opacity="0.95" />
      <stop offset="60%" stop-color="#3ed1a4" stop-opacity="0.55" />
      <stop offset="100%" stop-color="#0a2c32" stop-opacity="0" />
    </radialGradient>
    <linearGradient id="stem" x1="0" x2="1" y1="0" y2="1">
      <stop offset="0%" stop-color="#fce7a1" />
      <stop offset="45%" stop-color="#68ffd2" />
      <stop offset="100%" stop-color="#2fa3ff" />
    </linearGradient>
  </defs>
  <rect width="160" height="160" rx="32" fill="#041219" />
  <circle cx="80" cy="80" r="64" fill="url(#glow)" />
  <g transform="translate(80 80)">
    <path d="M0 -58 A58 58 0 1 1 -0.01 -58" fill="none" stroke="#67f9ff" stroke-width="6" stroke-dasharray="12 16" stroke-linecap="round" opacity="0.75" />
    <path d="M0 42 C-6 28 -10 14 -8 0 C-4 -24 12 -36 16 -58" fill="none" stroke="url(#stem)" stroke-width="6" stroke-linecap="round" stroke-linejoin="round" />
    <path d="M-18 -6 C-6 -12 4 -16 14 -16 C6 -10 -2 -2 -10 8 Z" fill="#e8ffe9" fill-opacity="0.8" />
    <path d="M6 10 C14 6 20 0 24 -8 C18 -2 8 8 2 20 Z" fill="#d0fff2" fill-opacity="0.8" />
    <circle cx="-6" cy="-30" r="10" fill="#fef3c7" opacity="0.85" />
    <circle cx="18" cy="-24" r="6" fill="#9df2ff" opacity="0.85" />
  </g>
</svg>
