<svg width="128" height="128" viewBox="0 0 128 128" fill="none" xmlns="http://www.w3.org/2000/svg">
  <rect x="8" y="8" width="112" height="112" rx="28" fill="#062330" />
  <rect x="18" y="18" width="92" height="92" rx="22" fill="#0b3642" />
  <circle cx="64" cy="64" r="34" fill="#173c4a" stroke="#68C5B8" stroke-width="3" />
  <path
    d="M64 34C76.703 34 87 44.297 87 57C87 66.383 81.752 74.597 73.886 78.727C70.951 80.274 70.627 84.228 73.411 85.79L80.2 89.548C82.856 91.035 81.802 95 78.78 95H49.22C46.198 95 45.144 91.035 47.8 89.548L54.589 85.79C57.373 84.228 57.049 80.274 54.114 78.727C46.248 74.597 41 66.383 41 57C41 44.297 51.297 34 64 34Z"
    fill="#68C5B8"
    opacity="0.85"
  />
  <path
    d="M64 41C74.493 41 83 49.507 83 60C83 69.383 76.504 77.493 67.821 79.569C64.895 80.271 64.425 84.14 66.962 85.505L71.8 88.094C74.053 89.298 73.177 93 70.643 93H57.357C54.823 93 53.947 89.298 56.2 88.094L61.038 85.505C63.575 84.14 63.105 80.271 60.179 79.569C51.496 77.493 45 69.383 45 60C45 49.507 53.507 41 64 41Z"
    fill="#F4C978"
    opacity="0.75"
  />
  <circle cx="64" cy="60" r="16" fill="#0E2733" stroke="#F4C978" stroke-width="2" />
  <path d="M64 48L68 60L64 72L60 60L64 48Z" fill="#68C5B8" />
  <circle cx="64" cy="60" r="6" fill="#F4C978" />
</svg>
