<svg xmlns="http://www.w3.org/2000/svg" viewBox="0 0 128 128">
  <defs>
    <radialGradient id="steam" cx="50%" cy="40%" r="60%">
      <stop offset="0%" stop-color="#f9f7d9" />
      <stop offset="45%" stop-color="#f0eac0" />
      <stop offset="100%" stop-color="#d8d0a6" />
    </radialGradient>
    <linearGradient id="cup" x1="0%" y1="0%" x2="100%" y2="100%">
      <stop offset="0%" stop-color="#1fa6a0" />
      <stop offset="50%" stop-color="#1d7f9b" />
      <stop offset="100%" stop-color="#116d83" />
    </linearGradient>
    <linearGradient id="saucer" x1="0%" y1="0%" x2="100%" y2="0%">
      <stop offset="0%" stop-color="#f7a340" />
      <stop offset="100%" stop-color="#ffcf66" />
    </linearGradient>
  </defs>
  <rect width="128" height="128" rx="24" fill="#04293a" />
  <g transform="translate(14 20)">
    <ellipse cx="50" cy="84" rx="46" ry="10" fill="url(#saucer)" opacity="0.9" />
    <path
      d="M25 42h50c3 0 5 2 5 5v21c0 18-15 33-34 33S12 86 12 68V47c0-3 2-5 5-5z"
      fill="url(#cup)"
      stroke="#0c4d5f"
      stroke-width="3"
      stroke-linejoin="round"
    />
    <path
      d="M75 52c6-4 14-2 18 4 6 10-1 24-12 26-4 1-8 0-11-2"
      fill="none"
      stroke="#ffa94d"
      stroke-width="6"
      stroke-linecap="round"
    />
    <path
      d="M23 28c12-6 46-6 58 0 4 2 6 7 2 9-12 6-50 6-62 0-4-2-2-7 2-9z"
      fill="#0b3c4a"
      opacity="0.6"
    />
    <path
      d="M38 0c-5 8 8 12 4 21-3 6-11 6-12 0-1-7 5-12 8-21z"
      fill="url(#steam)"
      opacity="0.9"
    />
    <path
      d="M56 -2c-6 9 9 12 5 21-2 5-9 6-11 1-3-7 3-13 6-22z"
      fill="url(#steam)"
      opacity="0.85"
    />
  </g>
</svg>
